<?xml version="1.0" encoding="utf-8"?>
<!-- Generator: Adobe Illustrator 24.2.3, SVG Export Plug-In . SVG Version: 6.00 Build 0)  -->
<svg version="1.0" id="Layer_1" xmlns="http://www.w3.org/2000/svg" xmlns:xlink="http://www.w3.org/1999/xlink" x="0px" y="0px"
	 viewBox="0 0 55 55" enable-background="new 0 0 55 55" xml:space="preserve">
<path display="none" fill="#291F1E" d="M15.4,17c0.3-0.5,0.5-1.1,0.6-1.6c0.2-0.6,0.4-1.2,0.6-1.4c0.3-0.2,0.9-0.3,1.5-0.3
	c0.8-0.1,1.6-0.1,2.4-0.5c0.8-0.4,1.3-1,1.8-1.5c0.4-0.4,0.9-1,1.2-1c0.3-0.1,0.9,0.2,1.5,0.4c0.7,0.3,1.5,0.6,2.4,0.6
	s1.7-0.3,2.4-0.6c0.5-0.2,1.2-0.5,1.5-0.4c0.3,0.1,0.8,0.6,1.2,1c0.5,0.6,1.1,1.2,1.8,1.5c0.8,0.4,1.6,0.4,2.4,0.5
	c0.6,0,1.3,0.1,1.5,0.3c0.3,0.2,0.5,0.9,0.6,1.4c0.2,0.5,0.3,1.1,0.6,1.6h4c-0.1-0.1-0.3-0.2-0.4-0.2c-0.5-0.3-1-0.5-1.2-0.8
	c-0.2-0.3-0.4-0.8-0.5-1.3c-0.3-0.9-0.6-2-1.5-2.7c-0.9-0.7-2-0.8-3-0.9c-0.5,0-1.1-0.1-1.4-0.2c-0.3-0.1-0.7-0.6-1-1
	c-0.7-0.7-1.4-1.6-2.6-1.8c-1.1-0.2-2.1,0.2-3,0.5C28.4,8.8,27.9,9,27.5,9c-0.4,0-0.9-0.2-1.4-0.4c-0.9-0.4-1.9-0.8-3-0.5
	c-1.1,0.3-1.9,1.1-2.6,1.8c-0.4,0.4-0.7,0.8-1,1C19.1,11,18.6,11,18,11c-1,0.1-2.1,0.1-3,0.9c-0.9,0.7-1.2,1.8-1.5,2.7
	c-0.2,0.5-0.3,1.1-0.5,1.3c-0.2,0.3-0.7,0.5-1.2,0.8c-0.1,0.1-0.3,0.2-0.4,0.2H15.4z"/>
<path display="none" fill="#291F1E" d="M27.5,5.3c-0.6,0-1-0.5-1-1V1c0-0.6,0.5-1,1-1c0.6,0,1,0.5,1,1v3.2
	C28.5,4.8,28.1,5.3,27.5,5.3z"/>
<path display="none" fill="#291F1E" d="M37.1,7.5c-0.5-0.2-0.7-0.8-0.5-1.4l1.4-2.9c0.2-0.5,0.8-0.7,1.4-0.5
	c0.5,0.2,0.7,0.8,0.5,1.4L38.5,7C38.3,7.5,37.6,7.7,37.1,7.5z"/>
<path display="none" fill="#291F1E" d="M44.9,13.6c-0.3-0.4-0.3-1.1,0.2-1.4l2.5-2c0.4-0.3,1.1-0.3,1.4,0.2c0.3,0.4,0.3,1.1-0.2,1.4
	l-2.5,2C45.9,14.2,45.2,14.1,44.9,13.6z"/>
<path display="none" fill="#291F1E" d="M10.1,13.6c-0.3,0.4-1,0.5-1.4,0.2l-2.5-2c-0.4-0.3-0.5-1-0.2-1.4c0.3-0.4,1-0.5,1.4-0.2
	l2.5,2C10.4,12.6,10.5,13.2,10.1,13.6z"/>
<path display="none" fill="#291F1E" d="M17.9,7.5c-0.5,0.2-1.1,0-1.4-0.5l-1.4-2.9c-0.2-0.5,0-1.1,0.5-1.4c0.5-0.2,1.1,0,1.4,0.5
	l1.4,2.9C18.6,6.6,18.4,7.2,17.9,7.5z"/>
<path display="none" fill="#291F1E" d="M27.5,5.3c-0.6,0-1-0.5-1-1V1c0-0.6,0.5-1,1-1c0.6,0,1,0.5,1,1v3.2
	C28.5,4.8,28.1,5.3,27.5,5.3z"/>
<g id="wip">
	<polygon id="pos" fill="#FFFFFF" points="22.3,6.1 22.3,25.6 4.4,25.6 9.4,43.3 44.7,43.3 49.9,38.3 49.9,25.6 32,25.6 32,6.1 	"/>
	<path id="neg" fill="#291F1E" d="M52.4,21.8c-0.1-0.6,0-1.4,0.1-2.2c0.2-1.3,0.4-2.7-0.2-4c-0.6-1.3-1.9-2-3.1-2.7
		c-0.7-0.4-1.4-0.8-1.8-1.3c-0.4-0.5-0.6-1.2-0.8-2.1c-0.4-1.2-0.8-2.7-1.9-3.6c-1.1-0.9-2.6-1-3.9-1.1c-0.9-0.1-1.7-0.1-2.2-0.4
		c-0.5-0.2-1.1-0.8-1.6-1.5c-0.9-1-1.9-2.1-3.3-2.4c-1.4-0.3-2.7,0.2-3.9,0.7C28.9,1.7,28.1,2,27.5,2s-1.4-0.3-2.2-0.6
		c-1.2-0.5-2.5-1-3.9-0.7c-1.4,0.3-2.4,1.4-3.3,2.4c-0.6,0.6-1.1,1.2-1.6,1.5c-0.5,0.3-1.3,0.3-2.2,0.4C12.9,5,11.5,5.1,10.4,6
		C9.2,6.9,8.8,8.3,8.4,9.6c-0.2,0.8-0.5,1.6-0.8,2.1c-0.4,0.5-1.1,0.9-1.8,1.3c-1.1,0.6-2.4,1.4-3.1,2.7c-0.6,1.3-0.4,2.7-0.2,4
		c0.1,0.9,0.3,1.7,0.1,2.2c-0.1,0.6-0.6,1.2-1.1,1.9C0.8,24.8,0,26,0,27.5s0.8,2.7,1.6,3.8c0.5,0.7,0.9,1.3,1.1,1.9
		c0.1,0.6,0,1.4-0.1,2.2c-0.2,1.3-0.4,2.7,0.2,4c0.6,1.3,1.9,2,3.1,2.7c0.7,0.4,1.4,0.8,1.8,1.3c0.4,0.5,0.6,1.2,0.8,2.1
		c0.4,1.2,0.8,2.7,1.9,3.6c1.1,0.9,2.6,1,3.9,1.1c0.9,0.1,1.7,0.1,2.2,0.4c0.5,0.3,1.1,0.8,1.6,1.5c0.9,1,1.9,2.1,3.3,2.4
		c0.3,0.1,0.6,0.1,0.9,0.1c1.1,0,2.1-0.4,3.1-0.8c0.8-0.3,1.6-0.6,2.2-0.6s1.4,0.3,2.2,0.6c1.2,0.5,2.5,1,3.9,0.7
		c1.4-0.3,2.4-1.4,3.3-2.4c0.6-0.6,1.1-1.2,1.6-1.5c0.5-0.3,1.3-0.3,2.2-0.4c1.3-0.1,2.8-0.2,3.9-1.1c1.1-0.9,1.6-2.3,1.9-3.6
		c0.2-0.8,0.5-1.6,0.8-2.1c0.4-0.5,1.1-0.9,1.8-1.3c1.1-0.6,2.4-1.4,3.1-2.7c0.6-1.3,0.4-2.7,0.2-4c-0.1-0.9-0.3-1.7-0.1-2.2
		c0.1-0.6,0.6-1.2,1.1-1.9c0.7-1.1,1.6-2.3,1.6-3.8s-0.8-2.7-1.6-3.8C52.9,23,52.5,22.4,52.4,21.8z M28.3,27.4l-4,14.2
		c-0.1,0.4-0.6,0.6-2.1,0.6c-1.7,0-2.3-0.2-2.4-0.6l-2.6-8.5l-2.6,8.5c-0.1,0.4-0.7,0.6-2.4,0.6c-1.6,0-2-0.2-2.1-0.6L6,27.4
		c0-0.1-0.1-0.3-0.1-0.4c0-0.4,0.5-0.5,2.1-0.5c1.9,0,2.2,0.2,2.4,0.6l2.2,8.6l2.5-8.1c0.1-0.5,0.3-0.8,2-0.8c1.7,0,1.9,0.3,2,0.8
		l2.5,8.1l2.2-8.6c0.1-0.4,0.4-0.6,2.4-0.6c1.6,0,2.1,0.1,2.1,0.5C28.3,27.1,28.3,27.2,28.3,27.4z M23.3,22.6l3.6-6.2h-3.6l8.4-8.1
		l-3.9,6.5h3.9L23.3,22.6z M34.2,41.5c0,0.4-0.4,0.7-2.2,0.7c-1.8,0-2.2-0.4-2.2-0.7V27.2c0-0.4,0.4-0.7,2.2-0.7
		c1.8,0,2.2,0.4,2.2,0.7V41.5z M42.4,38.5c-0.5,0-1.4-0.1-1.4-0.1v3.2c0,0.4-0.4,0.7-2.2,0.7c-1.8,0-2.2-0.4-2.2-0.7V27.9
		c0-0.7,2.2-1.6,5.3-1.6c4.1,0,7.1,2.1,7.1,5.8C49.1,36.3,46.2,38.5,42.4,38.5z M44.3,32.2c0,2.1-0.9,2.8-2.2,2.8
		c-0.8,0-1-0.4-1-0.8v-3.7c0-0.5,0.3-0.9,0.9-0.9C43.5,29.6,44.3,30.2,44.3,32.2z"/>
</g>
</svg>
